<svg width="512" height="512" viewBox="0 0 512 512" fill="none" xmlns="http://www.w3.org/2000/svg">
<path d="M48.6124 300.724C49.3996 300.038 50.1217 299.228 51.3125 299.854C52.5033 300.48 48.1283 309.375 47.8659 310.505C46.7448 315.528 48.0562 310.661 46.2352 318.298C44.4142 325.936 44.8872 332.062 43.9692 339.112C43.4242 343.492 44.4728 349.771 46.9651 355.724C49.2383 361.154 50.7962 362.324 54.0912 365.24C54.8876 365.945 55.8472 366.44 56.8831 366.68C61.4291 368.084 66.1106 369.005 70.8498 369.425C78.358 369.627 85.9065 369.728 93.4348 369.789C107.892 369.789 118.601 349.689 121.489 337.475C122.438 332.046 124.92 326.859 124.416 321.329C123.911 315.799 123.932 310.067 123.71 304.456C123.887 302.911 123.635 301.347 122.983 299.935C122.983 297.412 122.983 294.909 122.882 292.406C123.115 291.367 123.052 290.283 122.7 289.278V288.067C123.19 286.061 123.077 283.955 122.377 282.012C122.377 281.104 122.377 280.196 122.216 279.287C121.772 270.609 118.543 262.657 115.636 254.603L115.515 253.191C115.751 252.415 115.832 251.6 115.752 250.793C115.673 249.986 115.434 249.203 115.051 248.488L114.93 247.156C114.931 243.383 114.525 239.62 113.719 235.934C113.719 234.804 113.537 233.653 113.436 232.523C113.877 231.201 113.812 229.763 113.255 228.486C113.376 224.309 113.497 220.11 113.638 215.933C114.321 215.136 114.687 214.116 114.667 213.067C114.789 211.755 114.889 210.443 114.99 209.131C116.141 205.881 117.412 202.733 121.55 202.39L123.427 203.924C122.821 212.158 125.445 220.373 123.427 228.608C122.866 231.444 122.696 234.343 122.922 237.226C123.253 242.782 124.098 248.295 125.445 253.695C126.643 260.309 129.875 266.383 134.689 271.073C137.535 273.737 141.35 275.856 144.983 274.363C149.63 272.623 153.527 269.319 156.003 265.018C161.876 253.877 170.978 245.622 180.222 237.529C183.839 234.655 188.362 233.166 192.978 233.33C196.127 233.33 197.237 236.237 199.396 237.69C199.941 238.053 200.486 238.437 201.072 238.78C201.418 239.066 201.823 239.272 202.258 239.385C202.693 239.498 203.147 239.515 203.589 239.434C204.031 239.353 204.451 239.177 204.817 238.918C205.184 238.658 205.49 238.322 205.714 237.932C210.255 231.433 216.431 226.71 222.789 222.209C223.697 221.543 224.686 220.999 224.807 219.727L226.179 218.718C227.84 218.975 229.538 218.646 230.983 217.789C237.926 214.843 244.829 211.734 251.893 209.131C258.331 206.709 265.294 206.002 271.894 204.125C280.391 201.683 289.231 200.876 297.607 197.667C301.86 196.394 305.711 194.044 308.789 190.845C310.902 188.004 313.201 185.307 315.671 182.772C316.238 182.226 316.665 181.553 316.918 180.809C317.171 180.064 317.241 179.27 317.125 178.493L319.143 176.878C319.65 176.343 320.313 175.98 321.037 175.843C321.762 175.705 322.511 175.799 323.18 176.111C323.787 176.506 324.248 177.089 324.492 177.77C324.736 178.452 324.75 179.195 324.532 179.885C324.29 181.52 323.846 183.115 323.603 184.729C323.361 186.344 323.603 187.918 325.884 187.757C326.058 187.787 326.235 187.787 326.409 187.757C328.277 187.433 330.046 186.684 331.579 185.567C333.112 184.451 334.367 182.997 335.249 181.318L337.267 179.3C342.697 176.979 345.744 172.115 348.489 167.453C350.306 164.344 353.051 161.68 353.898 158.067C354.322 156.211 354.201 154.031 356.361 153.365C358.52 152.699 359.065 154.899 360.397 155.827L360.66 157.845C360.195 159.218 359.832 160.611 359.267 161.882C357.874 165.051 358.702 166.968 362.012 166.605C371.473 165.554 380.509 158.887 385.94 151.307C388.972 147.074 392.373 142.772 393.175 137.481C393.78 132.717 394.89 132.213 399.088 134.736L399.31 135.927C399.216 136.185 399.213 136.468 399.301 136.728C399.389 136.988 399.563 137.211 399.795 137.36V139.862C399.189 141.174 398.644 142.506 397.958 143.758C394.043 150.882 391.318 158.875 383.83 163.355C382.172 164.259 380.592 165.299 379.107 166.464C372.669 171.933 364.979 173.447 356.906 173.931C355.88 173.897 354.859 174.077 353.907 174.459C352.955 174.841 352.092 175.418 351.375 176.152C345.119 182.247 339.548 189.15 331.475 193.57C327.579 195.709 323.644 198.313 319.042 195.79C318.226 195.236 317.236 195 316.258 195.127C315.28 195.253 314.382 195.733 313.734 196.476C310.648 199.013 307.258 201.156 303.642 202.854C296.441 206.672 287.393 208.903 279.281 209.312C268.281 209.938 258.028 213.591 247.775 217.164C245.26 217.973 242.799 218.944 240.408 220.07C235.221 222.654 230.64 226.125 225.735 229.132C219.614 232.974 214.307 237.98 210.114 243.866C209.306 244.936 208.317 246.046 208.62 247.459C209.548 251.717 205.875 253.514 203.978 256.117C203.883 256.313 203.732 256.476 203.543 256.585C203.355 256.694 203.138 256.744 202.921 256.729C202.704 256.714 202.496 256.634 202.325 256.5C202.153 256.366 202.026 256.183 201.96 255.976C200.749 253.473 200.181 253.011 198.64 249.691C196.367 246.253 196.749 246.183 195.7 243.6C195.253 242.5 194.402 241.613 193.321 241.121C192.208 240.458 190.92 240.147 189.626 240.23C188.333 240.313 187.095 240.785 186.075 241.585C183.754 243.604 181.151 245.44 179.011 247.64C172.164 254.584 166.075 262.236 160.846 270.467C156.81 276.765 151.704 281.952 143.348 281.992C140.341 281.915 137.382 281.229 134.649 279.974C133.115 279.368 131.944 279.247 131.964 281.346C131.735 287.082 131.985 292.827 132.711 298.522V301.227C131.798 306.045 131.949 311.005 133.155 315.758C133.896 318.997 134.006 322.348 133.478 325.628C132.489 332.248 130.188 338.545 128.897 345.064C126.212 358.587 119.148 368.961 106.917 375.521C104.591 377.057 101.949 378.051 99.187 378.427C86.1238 379.277 73.0055 378.505 60.1326 376.126C58.1829 375.395 56.1484 374.913 54.0776 374.693C53.9467 374.58 53.7963 374.491 53.6336 374.431C48.8352 371.968 43.8457 367.244 41.8666 362.227C39.5052 356.898 38.8006 352.368 38.0942 346.414C38.0942 341.56 39.0247 336.698 39.2693 331.643L40.2256 321.676C44.0578 307.504 45.7655 303.778 48.6124 300.724Z" fill="white"/>
<path d="M205.875 293.174L205.573 294.465C203.295 299.092 202.098 304.177 202.074 309.334C202.049 314.491 203.197 319.587 205.431 324.235C207.732 329.463 211.628 331.138 216.875 328.857C218.248 328.252 219.6 327.929 220.004 329.806C220.282 330.777 220.282 331.806 220.004 332.777C219.725 333.747 219.18 334.62 218.429 335.296C216.563 337.145 214.06 338.211 211.433 338.275C208.807 338.339 206.255 337.396 204.301 335.639C202.502 334.169 200.96 332.409 199.74 330.432C197.762 326.848 196.081 323.108 194.714 319.25C194.492 317.736 194.29 316.203 194.088 314.689C193.49 310.199 194.088 305.142 194.088 305.142C194.088 305.142 194.29 303.871 194.371 303.245L195.037 301.227C195.178 300.843 195.299 300.48 195.441 300.117C198.841 293.174 197.947 293.794 200.452 290.522C201.68 288.917 201.73 288.46 202.586 287.724C203.978 286.392 204.927 286.634 205.27 288.572C205.532 290.106 205.674 291.64 205.875 293.174Z" fill="white"/>
<path d="M159.918 354.51C159.414 354.348 158.546 354.167 157.718 353.844C156.527 353.4 155.014 353.036 154.226 353.844C151.522 356.77 147.263 356.548 144.357 359.011C143.756 359.528 142.99 359.812 142.197 359.812C141.405 359.812 140.638 359.528 140.038 359.011C139.742 358.839 139.49 358.601 139.303 358.314C139.117 358.028 139 357.702 138.962 357.362C138.925 357.022 138.968 356.678 139.088 356.358C139.209 356.038 139.402 355.75 139.654 355.519C143.691 352.31 147.929 349.04 153.52 349C155.524 349.154 157.516 348.58 159.131 347.385C159.739 346.795 160.535 346.437 161.38 346.375C162.224 346.312 163.065 346.548 163.753 347.042C165.166 348.112 164.419 349.706 163.995 351.079C163.848 352.048 163.353 352.931 162.603 353.562C161.853 354.194 160.898 354.531 159.918 354.51Z" fill="white"/>
<path d="M426.88 214.843L427.425 215.226C428.058 216.406 428.312 217.751 428.153 219.08C427.994 220.409 427.43 221.656 426.537 222.654C425.751 223.466 425.273 224.527 425.185 225.655C425.096 226.782 425.403 227.904 426.053 228.83C427.425 230.848 429.464 230.606 431.745 229.98C437.969 228.389 443.814 225.576 448.941 221.705C455.272 216.847 460.651 210.859 464.805 204.045C466.846 200.955 469.619 198.417 472.878 196.658L475.037 198.515C475.037 199.16 475.037 199.826 475.037 200.533C474.684 200.728 474.396 201.024 474.213 201.384C474.029 201.744 473.958 202.15 474.008 202.551C473.632 202.688 473.316 202.953 473.116 203.3C472.917 203.648 472.847 204.054 472.918 204.448L467.166 214.54C464.038 217.931 460.929 221.362 457.781 224.732C456.045 226.569 457.781 224.824 454.072 228.7C453.966 228.727 453.551 229.084 453.464 229.15C453.378 229.216 452.916 229.46 452.581 229.686C451.994 230.083 452.676 229.725 451.169 230.826C450.091 230.887 449.056 231.267 448.194 231.918C446.29 233.414 444.002 234.345 441.594 234.602C439.832 234.772 438.133 235.345 436.629 236.277L435.398 236.54C435.045 236.435 434.671 236.429 434.316 236.521C433.96 236.614 433.636 236.801 433.379 237.064L428.233 237.529C427.123 237.044 426.033 236.519 424.902 236.096C422.299 235.127 420.139 235.45 419.009 238.376L417.394 240.395C413.923 243.483 409.927 245.965 406.98 249.638L398.725 253.07L395.395 253.231C392.367 253.231 390.49 251.051 388.916 249.073C387.342 247.095 386.07 247.519 384.435 248.569C380.056 251.394 377.149 255.673 373.96 259.609C369.157 265.523 365.625 272.345 361.265 278.581C359.671 280.842 360.094 283.869 357.995 285.766C352.526 290.711 347.621 296.262 341.102 300.076C338.719 301.618 335.972 302.504 333.137 302.646C330.302 302.788 327.48 302.18 324.956 300.883C323.643 300.257 318.134 298.482 317.266 300.036C316.923 299.895 316.935 300.247 316.721 300.379C315.944 300.857 315.273 301.002 314.69 301.533C312.986 303.083 311.771 304.171 310.321 306.205C309.94 306.739 309.91 307.201 309.394 307.604C301.599 313.706 296.073 315.052 288.424 316.364C283.055 317.07 277.888 317.01 272.944 314.083C271.917 313.546 270.727 313.411 269.607 313.706C268.486 314.001 267.517 314.704 266.889 315.678C263.357 320.037 258.815 323.186 254.779 327.101C252.76 329.12 249.39 329.12 247.129 331.138C245.858 332.208 244.485 333.156 243.093 334.105C241.7 335.054 240.832 335.296 239.803 334.105C238.773 332.914 239.54 332.087 240.065 331.077C242.972 325.023 248.421 321.39 253.043 316.949C256.454 313.452 259.554 309.663 262.307 305.627C264.729 302.296 264.124 297.715 265.496 293.819C266.703 290.927 266.895 287.712 266.041 284.697C265.824 283.991 265.877 283.231 266.19 282.563C266.504 281.895 267.055 281.367 267.736 281.084C268.446 280.632 269.286 280.431 270.124 280.511C270.961 280.591 271.748 280.949 272.358 281.528C274.308 283.054 275.707 285.175 276.341 287.568C276.975 289.962 276.809 292.497 275.87 294.788C273.852 300.52 277.888 303.75 280.31 307.544C281.481 309.32 283.964 308.836 285.942 308.392C294.136 306.373 301.442 303.043 306.791 296.282C306.992 296.009 307.222 295.759 307.477 295.535C314.783 289.278 312.603 287.24 308.688 280.499C307.216 277.76 305.522 275.148 303.622 272.688C303.026 271.923 302.598 271.041 302.367 270.1C302.137 269.158 302.108 268.178 302.283 267.225C302.459 266.271 302.834 265.366 303.385 264.568C303.936 263.77 304.649 263.098 305.479 262.596C310.231 259.313 315.579 256.989 321.222 255.754C323.19 255.354 325.075 254.617 326.792 253.574C335.087 248.347 344.271 244.936 353.212 241.02C354.119 241.171 354.985 241.505 355.759 242.001C356.533 242.497 357.197 243.145 357.713 243.906C357.713 244.774 357.713 245.662 357.713 246.53L354.786 249.013C354.398 249.052 354.031 249.214 353.741 249.475C353.451 249.736 353.251 250.084 353.172 250.466C351.799 250.728 351.153 251.778 350.709 252.908C348.328 254.079 347.48 256.501 346.208 258.559C345.366 259.038 344.668 259.735 344.19 260.578L334.845 275.755C333.75 276.641 332.959 277.848 332.585 279.207C331.656 279.792 330.728 280.398 330.829 281.71C328.738 283.702 326.919 285.962 325.42 288.43C324.734 289.621 323.886 291.135 326.045 291.942C326.411 292.469 326.924 292.875 327.521 293.108C328.118 293.342 328.77 293.393 329.396 293.254C333.796 294.889 337.207 292.588 340.315 290.146C344.15 287.119 346.774 282.961 349.841 279.207C352.352 276.159 354.582 272.889 356.502 269.438C360.66 261.769 366.593 255.492 371.881 248.75C376.362 243.079 383.164 239.85 387.604 234.097C388.391 233.088 389.743 232.987 390.854 232.483C391.872 232.389 392.896 232.598 393.797 233.082C394.698 233.567 395.436 234.306 395.919 235.208C396.208 236.621 396.277 238.072 396.121 239.507C396.121 241.02 395.879 242.796 397.595 243.543C398.371 243.855 399.225 243.917 400.039 243.722C400.852 243.526 401.585 243.083 402.136 242.453C403.831 240.899 405.486 239.285 407.262 237.831C410.851 234.932 413.946 231.469 416.426 227.578C419.11 223.38 419.392 218.032 422.884 214.217H425.629L426.88 214.843ZM330.001 261.708C328.734 261.601 327.469 261.944 326.429 262.677C322.957 265.303 318.785 266.841 314.44 267.097C312.825 267.218 309.596 267.097 310.726 270.205C311.856 273.46 313.973 276.282 316.781 278.278C319.822 280.377 322.049 280.034 323.462 277.249C325.59 272.735 328.282 268.51 331.475 264.675C332.02 264.049 332.867 263.282 332.423 262.334C331.979 261.385 330.788 261.809 330.062 261.708H330.001Z" fill="white"/>
</svg>
